<svg viewBox="0 0 30 30" xmlns="http://www.w3.org/2000/svg" xml:space="preserve" fill-rule="evenodd" clip-rule="evenodd" stroke-linejoin="round" stroke-miterlimit="2">
  <path d="M15.27 6.14c-6.032 0-10.925 4.894-10.925 10.937 0 6.043 4.893 10.925 10.925 10.925 6.031 0 10.925-4.893 10.925-10.937A10.913 10.913 0 0 0 15.27 6.14Zm0 18.635a7.702 7.702 0 0 1-7.698-7.698 7.702 7.702 0 0 1 7.698-7.698 7.702 7.702 0 0 1 7.698 7.698 7.695 7.695 0 0 1-7.698 7.698Zm0-13.823v5.738c0 .164.176.281.328.2l5.093-2.641c.118-.059.153-.2.094-.317a6.337 6.337 0 0 0-5.28-3.203c-.118 0-.235.093-.235.223ZM8.135 6.739l-.669-.67a1.671 1.671 0 0 0-2.37 0l-.798.799a1.671 1.671 0 0 0 0 2.37l.657.657c.106.106.258.083.352-.023.387-.528.81-1.033 1.28-1.502.48-.481.973-.904 1.513-1.29.117-.071.13-.236.035-.341ZM18.85 5.002V3.676c0-.927-.751-1.678-1.678-1.678h-3.908c-.927 0-1.678.751-1.678 1.678v1.361c0 .153.141.258.294.223a12.229 12.229 0 0 1 3.403-.48c1.114 0 2.217.152 3.285.445.141.035.282-.07.282-.223Z" fill="#444" fill-rule="nonzero"/>
</svg>