<svg viewBox="0 0 20 20" xmlns="http://www.w3.org/2000/svg" xml:space="preserve" fill-rule="evenodd" clip-rule="evenodd" stroke-linejoin="round" stroke-miterlimit="2">
  <path d="M10.18 4.096a7.284 7.284 0 0 0-7.28 7.288 7.277 7.277 0 0 0 7.28 7.28c4.02 0 7.28-3.26 7.28-7.288a7.272 7.272 0 0 0-7.28-7.28Zm0 12.418c-2.831 0-5.13-2.299-5.13-5.13 0-2.83 2.299-5.13 5.13-5.13 2.83 0 5.13 2.3 5.13 5.13 0 2.831-2.291 5.13-5.13 5.13Zm0-9.212v3.824c0 .11.117.188.219.133l3.394-1.76c.078-.039.101-.132.062-.21a4.223 4.223 0 0 0-3.519-2.136c-.078 0-.156.063-.156.15ZM5.425 4.495l-.445-.446a1.114 1.114 0 0 0-1.58 0l-.532.532a1.114 1.114 0 0 0 0 1.58l.438.437c.07.07.172.055.235-.015.258-.352.54-.689.852-1.001.32-.321.65-.602 1.009-.86.078-.047.086-.157.023-.227Zm7.14-1.158v-.883c0-.618-.5-1.119-1.118-1.119H8.843c-.618 0-1.119.5-1.119 1.119v.907c0 .101.094.172.196.148a8.15 8.15 0 0 1 2.268-.32 8.26 8.26 0 0 1 2.19.297.151.151 0 0 0 .187-.149Z" fill="#444" fill-rule="nonzero"/>
</svg>